<svg width="80" height="20" viewBox="0 0 80 20" fill="none" xmlns="http://www.w3.org/2000/svg">
<path fill-rule="evenodd" clip-rule="evenodd" d="M49.6512 0.237305H48.5156C47.935 0.237305 47.5294 0.642758 47.5294 1.22317V16.1861H42.8078C39.8879 16.1861 38.703 16.0007 38.703 11.3373V1.22317C38.703 0.642758 38.2974 0.237305 37.7168 0.237305H36.6138C36.0332 0.237305 35.5949 0.660809 35.5949 1.22317V11.3373C35.5949 17.9648 37.9939 19.1305 43.0356 19.1305C44.8484 19.1305 47.3321 19.1305 49.7005 18.7965L49.7554 18.7854C50.3402 18.6389 50.6375 18.3036 50.6375 17.7884V1.22317C50.6375 0.642758 50.2319 0.237305 49.6512 0.237305Z" fill="#272727"/>
<path fill-rule="evenodd" clip-rule="evenodd" d="M63.2796 0.272566L63.2025 0.252432C62.5371 0.112189 60.7181 0.0101318 59.8158 0.0101318C56.6244 0.0101318 54.9373 1.34868 54.9373 3.88138V17.982C54.9373 18.5631 55.3429 18.9685 55.9243 18.9685H57.0592C57.6405 18.9685 58.0461 18.5631 58.0461 17.982V4.14034C58.0461 3.5155 58.2031 2.95453 60.1082 2.95453L62.9274 2.95175C63.2039 2.98508 63.4678 2.90871 63.6699 2.73653C63.8915 2.54977 64.013 2.27692 64.013 1.96867V1.25565C64.013 0.787019 63.7456 0.428776 63.2796 0.272566Z" fill="#272727"/>
<mask id="mask0" mask-type="alpha" maskUnits="userSpaceOnUse" x="65" y="0" width="16" height="20">
<path fill-rule="evenodd" clip-rule="evenodd" d="M65.1854 0.0101318H80.0001V19.1307H65.1854V0.0101318Z" fill="white"/>
</mask>
<g mask="url(#mask0)">
<path fill-rule="evenodd" clip-rule="evenodd" d="M72.6907 0.0101318C69.4228 0.0101318 67.576 0.641917 66.5154 2.12349C65.4083 3.67101 65.1854 6.11415 65.1854 9.55425C65.1854 16.3074 66.2286 19.131 72.6907 19.131C73.4665 19.131 76.1197 19.1157 77.6685 18.9269C78.2714 18.8262 78.5416 18.3638 78.5416 17.95V17.2044C78.5416 16.624 78.1033 16.1859 77.5227 16.1859H72.6907C69.0443 16.1859 68.3872 15.325 68.2935 10.429V8.8454C68.3247 3.83555 68.9818 2.95453 72.6907 2.95453C76.1106 2.95453 76.7656 3.73627 76.8795 8.14697H71.446V11.1233H78.593C80.0001 11.1233 80.0001 10.1374 80.0001 9.81391V8.86276C79.8987 1.99574 78.2589 0.0101318 72.6907 0.0101318Z" fill="#272727"/>
</g>
<path fill-rule="evenodd" clip-rule="evenodd" d="M32.0936 0.70042C31.9477 0.390082 31.6351 0.204712 31.2573 0.204712H29.7981C29.3744 0.204712 29.0577 0.375502 28.891 0.683758L26.7281 3.84963L28.6215 6.44341L31.9269 1.69322C32.2901 1.25098 32.1644 0.851771 32.0936 0.70042Z" fill="#74BB11"/>
<path fill-rule="evenodd" clip-rule="evenodd" d="M20.6922 0.647839L20.6902 0.645062C20.3602 0.204895 19.922 0.204895 19.7775 0.204895H18.3502C17.9849 0.204895 17.6855 0.372908 17.5286 0.66589C17.3681 0.965814 17.4021 1.32683 17.6244 1.66078L22.912 9.00476L16.8319 17.5005C16.6194 17.8199 16.5895 18.1754 16.7507 18.4753C16.9076 18.7683 17.207 18.9363 17.5723 18.9363H19.0316C19.4066 18.9363 19.7365 18.7412 19.9011 18.4336L26.7063 9.03808L20.6922 0.647839Z" fill="#009CD9"/>
<path fill-rule="evenodd" clip-rule="evenodd" d="M32.835 17.7549L29.1517 12.6941L27.5311 14.9302L30.4442 18.8224L30.5202 18.8555C30.6457 18.9097 30.7657 18.9362 30.8875 18.9362H32.1263C32.4255 18.9362 32.68 18.8025 32.8236 18.5705C32.9713 18.332 32.975 18.035 32.835 17.7549Z" fill="#EB2084"/>
<mask id="mask1" mask-type="alpha" maskUnits="userSpaceOnUse" x="0" y="0" width="15" height="20">
<path fill-rule="evenodd" clip-rule="evenodd" d="M0 0H14.3286V19.1207H0V0Z" fill="white"/>
</mask>
<g mask="url(#mask1)">
<path fill-rule="evenodd" clip-rule="evenodd" d="M11.2204 10.984V15.9369C9.77569 16.1591 7.57396 16.2084 6.82316 16.2084C3.5032 16.2084 3.13995 15.2996 3.13995 13.3695C3.13995 11.5637 3.81436 10.984 5.91538 10.984H11.2204ZM6.66143 0C5.63558 0 4.23676 0.0263822 2.49621 0.236746L2.41773 0.253408C1.91071 0.398511 1.65372 0.73176 1.65372 1.24552V1.95853C1.65372 2.56671 2.03156 2.9444 2.63999 2.9444H6.66143C9.89943 2.9444 11.2205 3.82334 11.2205 5.97835V8.07227H5.91549C1.76902 8.07227 0 9.6559 0 13.3695C0 17.5081 1.83083 19.1209 6.53155 19.1209C8.43532 19.1209 11.9407 18.973 13.2361 18.5773C14.3286 18.2732 14.3286 17.4373 14.3286 17.1616V5.78396C14.3286 1.89188 11.8206 0 6.66143 0Z" fill="#272727"/>
</g>
</svg>
